<svg width="64" height="64" viewBox="0 0 64 64" fill="none" xmlns="http://www.w3.org/2000/svg">
<circle cx="32" cy="32" r="32" fill="#F3F5F9"/>
<path d="M23.9014 36.4219H14.0371L12.3145 42H4.62402L15.5752 12.1406H22.3428L33.376 42H25.6445L23.9014 36.4219ZM15.7598 30.8643H22.1787L18.959 20.5078L15.7598 30.8643Z" fill="#808080"/>
<path d="M41.7754 41.8691V52H34.5771V22.1406H46.4922C48.7754 22.1406 50.792 22.5645 52.542 23.4121C54.3057 24.2461 55.666 25.4424 56.623 27.001C57.5938 28.5459 58.0791 30.3027 58.0791 32.2715C58.0791 35.1836 57.0332 37.5146 54.9414 39.2646C52.8633 41.001 50.0059 41.8691 46.3691 41.8691H41.7754ZM41.7754 36.3115H46.4922C47.8867 36.3115 48.9463 35.9629 49.6709 35.2656C50.4092 34.5684 50.7783 33.584 50.7783 32.3125C50.7783 30.918 50.4023 29.8037 49.6504 28.9697C48.8984 28.1357 47.873 27.7119 46.5742 27.6982H41.7754V36.3115Z" fill="#E8676B"/>
</svg>
